<svg xmlns="http://www.w3.org/2000/svg" viewBox="0 0 128 128" fill="none">
  <defs>
    <linearGradient id="bg" x1="18" y1="14" x2="108" y2="116" gradientUnits="userSpaceOnUse">
      <stop stop-color="#2A1710"/>
      <stop offset="1" stop-color="#120B08"/>
    </linearGradient>
    <linearGradient id="car" x1="36" y1="48" x2="88" y2="84" gradientUnits="userSpaceOnUse">
      <stop stop-color="#FF9A57"/>
      <stop offset="1" stop-color="#FF6126"/>
    </linearGradient>
    <linearGradient id="glass" x1="50" y1="48" x2="74" y2="68" gradientUnits="userSpaceOnUse">
      <stop stop-color="#FFF3DE"/>
      <stop offset="1" stop-color="#FFD8AB"/>
    </linearGradient>
  </defs>

  <rect x="6" y="6" width="116" height="116" rx="28" fill="url(#bg)"/>
  <rect x="6" y="6" width="116" height="116" rx="28" stroke="#4A2B1C" stroke-width="2"/>

  <circle cx="30" cy="26" r="20" fill="#FF6B2C" opacity=".18"/>
  <circle cx="100" cy="98" r="24" fill="#FFD166" opacity=".12"/>

  <rect x="16" y="82" width="96" height="20" rx="10" fill="#231510"/>
  <rect x="25" y="90" width="50" height="4" rx="2" fill="#FFD166"/>
  <rect x="79" y="90" width="13" height="4" rx="2" fill="#FFD166" opacity=".75"/>

  <path d="M35 73.5V68C35 62.5 39.5 58 45 58H67.5C72.5 58 77.2 60.7 80.1 65L84.6 71.6C86.2 74 84.5 77 81.6 77H41C37.7 77 35 75.3 35 73.5Z" fill="url(#car)"/>
  <path d="M50 57.5C51.5 52.7 55.9 49 61 49H70.2C74.2 49 77.9 51.2 80.1 54.5L82 57.5H50Z" fill="url(#car)"/>
  <path d="M53 57H77.8L75.6 53.9C74.5 52.3 72.7 51.3 70.8 51.3H61.7C58.4 51.3 55.4 53.5 54.4 56.6L53 57Z" fill="url(#glass)"/>

  <circle cx="48" cy="78.5" r="10.5" fill="#110B08"/>
  <circle cx="48" cy="78.5" r="4.2" fill="#F6DFC2"/>
  <circle cx="76" cy="78.5" r="10.5" fill="#110B08"/>
  <circle cx="76" cy="78.5" r="4.2" fill="#F6DFC2"/>

  <circle cx="40.5" cy="69.5" r="2.2" fill="#FFD166"/>
  <rect x="79.5" y="67.4" width="5.8" height="3.2" rx="1.6" fill="#FFF0D9"/>

  <path d="M92.5 57.5 96 51l4.5 6.5h-3.2v7h-2.6v-7h-2.2Z" fill="#FFD166"/>
</svg>
