<svg xmlns="http://www.w3.org/2000/svg" width="1200" height="630" viewBox="0 0 1200 630" fill="none">
  <defs>
    <linearGradient id="bg" x1="120" y1="20" x2="1060" y2="610" gradientUnits="userSpaceOnUse">
      <stop stop-color="#17100C"/>
      <stop offset="0.55" stop-color="#100907"/>
      <stop offset="1" stop-color="#080504"/>
    </linearGradient>
    <radialGradient id="glowA" cx="0" cy="0" r="1" gradientUnits="userSpaceOnUse" gradientTransform="translate(980 120) rotate(127) scale(300 270)">
      <stop stop-color="#FF6B2C" stop-opacity="0.3"/>
      <stop offset="1" stop-color="#FF6B2C" stop-opacity="0"/>
    </radialGradient>
    <radialGradient id="glowB" cx="0" cy="0" r="1" gradientUnits="userSpaceOnUse" gradientTransform="translate(180 40) rotate(72) scale(210 250)">
      <stop stop-color="#FFD166" stop-opacity="0.12"/>
      <stop offset="1" stop-color="#FFD166" stop-opacity="0"/>
    </radialGradient>
    <linearGradient id="panel" x1="600" y1="42" x2="600" y2="588" gradientUnits="userSpaceOnUse">
      <stop stop-color="#2A1811" stop-opacity="0.97"/>
      <stop offset="1" stop-color="#1A100B" stop-opacity="0.97"/>
    </linearGradient>
    <linearGradient id="card" x1="0" y1="0" x2="0" y2="1">
      <stop stop-color="#341E15"/>
      <stop offset="1" stop-color="#24140D"/>
    </linearGradient>
    <linearGradient id="carBody" x1="0" y1="0" x2="0" y2="1">
      <stop stop-color="#FF9756"/>
      <stop offset="1" stop-color="#FF6B2C"/>
    </linearGradient>
  </defs>

  <rect width="1200" height="630" fill="url(#bg)"/>
  <rect width="1200" height="10" fill="#FF6B2C"/>
  <rect y="10" width="1200" height="4" fill="#FFD166"/>
  <circle cx="980" cy="120" r="250" fill="url(#glowA)"/>
  <circle cx="180" cy="40" r="190" fill="url(#glowB)"/>

  <rect x="38" y="42" width="1124" height="548" rx="28" fill="url(#panel)" stroke="#FFB780" stroke-opacity="0.18"/>

  <text x="72" y="90" fill="#FFD166" font-family="Arial" font-size="24" font-weight="700" letter-spacing="5">FSD DELAY CLOCK</text>
  <text x="72" y="124" fill="#F7EAD7" font-family="Arial" font-size="20" font-weight="600" letter-spacing="1.8">fsddelay.org</text>

  <text x="72" y="198" fill="#F7EAD7" font-family="Arial" font-size="74" font-weight="900" letter-spacing="-2">MINISTERS,</text>
  <text x="72" y="272" fill="#F7EAD7" font-family="Arial" font-size="74" font-weight="900" letter-spacing="-2">YOUR CLOCK IS</text>
  <text x="72" y="346" fill="#FF9756" font-family="Arial" font-size="78" font-weight="900" letter-spacing="-2.2">STILL RUNNING.</text>

  <text x="74" y="410" fill="#D0B79A" font-family="Georgia" font-size="26">RDW approved FSD in the Netherlands on 10 April 2026.</text>
  <text x="74" y="446" fill="#D0B79A" font-family="Georgia" font-size="26">Europe still waits for the Commission step and then the vote.</text>

  <rect x="72" y="492" width="250" height="48" rx="24" fill="#24150F" stroke="#FFB780" stroke-opacity="0.18"/>
  <text x="197" y="523" fill="#FFD166" font-family="Arial" font-size="20" font-weight="800" letter-spacing="1.4" text-anchor="middle">HW4-ONLY IS PARTIAL</text>

  <rect x="72" y="548" width="310" height="48" rx="24" fill="#24150F" stroke="#FFB780" stroke-opacity="0.18"/>
  <text x="227" y="579" fill="#FFD166" font-family="Arial" font-size="20" font-weight="800" letter-spacing="1.1" text-anchor="middle">APPROVE THEN IMPROVE</text>

  <text x="420" y="579" fill="#FFF0E3" font-family="Arial" font-size="16" font-weight="700" letter-spacing="2.4">SOURCE-BACKED ACTIVIST TRACKER</text>

  <rect x="780" y="76" width="332" height="220" rx="24" fill="url(#card)" stroke="#FF6B2C" stroke-opacity="0.25"/>
  <text x="808" y="118" fill="#FFD166" font-family="Arial" font-size="20" font-weight="800" letter-spacing="2.7">LIVE SCENARIO COUNTER</text>
  <text x="808" y="150" fill="#D0B79A" font-family="Georgia" font-size="19">Illustrative lives/year frozen</text>
  <text x="808" y="176" fill="#D0B79A" font-family="Georgia" font-size="19">under the broad HW3 + HW4</text>
  <text x="808" y="202" fill="#D0B79A" font-family="Georgia" font-size="19">policy scope</text>
  <text x="804" y="278" fill="#FFF0E3" font-family="Arial" font-size="112" font-weight="900" letter-spacing="-6">25.2</text>
  <text x="812" y="298" fill="#FFD166" font-family="Arial" font-size="26" font-weight="800" letter-spacing="1.6">LIVES/YR</text>

  <rect x="780" y="320" width="332" height="220" rx="24" fill="url(#card)" stroke="#FFB780" stroke-opacity="0.16"/>
  <text x="808" y="362" fill="#FFD166" font-family="Arial" font-size="20" font-weight="800" letter-spacing="2.7">NEXT +1</text>
  <text x="808" y="446" fill="#FFF2CB" font-family="Arial" font-size="96" font-weight="900" letter-spacing="-4">14.5D</text>
  <text x="808" y="486" fill="#D0B79A" font-family="Georgia" font-size="22">Current default pace of the live counter</text>

  <rect x="806" y="510" width="220" height="12" rx="6" fill="#251712"/>
  <rect x="820" y="514" width="158" height="4" rx="2" fill="#FFD166"/>
  <rect x="1032" y="491" width="64" height="36" rx="10" fill="#FFD166"/>
  <path d="M1044 507H1084" stroke="#FF6B2C" stroke-width="6"/>
  <path d="M1040 529H1088" stroke="#FF6B2C" stroke-width="6"/>

  <g transform="translate(944 470)">
    <path d="M0 34C0 21 11 10 24 10H76L96 25V42H0V34Z" fill="url(#carBody)"/>
    <path d="M26 10C30 1 38 -4 49 -4H65C72 -4 79 0 84 10H26Z" fill="#FFE4C6"/>
    <circle cx="22" cy="44" r="11" fill="#16100D"/>
    <circle cx="74" cy="44" r="11" fill="#16100D"/>
    <circle cx="22" cy="44" r="4.5" fill="#F6D9BA"/>
    <circle cx="74" cy="44" r="4.5" fill="#F6D9BA"/>
  </g>

  <circle cx="1082" cy="392" r="27" fill="#FF6B2C" fill-opacity="0.16" stroke="#FF6B2C" stroke-opacity="0.4"/>
  <text x="1082" y="401" fill="#FFF0E3" font-family="Arial" font-size="25" font-weight="900" text-anchor="middle">+1</text>
</svg>
