<svg xmlns="http://www.w3.org/2000/svg" width="1200" height="630" viewBox="0 0 1200 630" fill="none">
  <defs>
    <linearGradient id="bg" x1="120" y1="24" x2="1052" y2="612" gradientUnits="userSpaceOnUse">
      <stop stop-color="#170D09" />
      <stop offset="0.56" stop-color="#0F0907" />
      <stop offset="1" stop-color="#080504" />
    </linearGradient>
    <radialGradient id="glowA" cx="0" cy="0" r="1" gradientUnits="userSpaceOnUse" gradientTransform="translate(1018 92) rotate(130.918) scale(286.733 284.217)">
      <stop stop-color="#FF6B2C" stop-opacity="0.34" />
      <stop offset="1" stop-color="#FF6B2C" stop-opacity="0" />
    </radialGradient>
    <radialGradient id="glowB" cx="0" cy="0" r="1" gradientUnits="userSpaceOnUse" gradientTransform="translate(212 58) rotate(68.6264) scale(215.502 285.618)">
      <stop stop-color="#FFD166" stop-opacity="0.16" />
      <stop offset="1" stop-color="#FFD166" stop-opacity="0" />
    </radialGradient>
    <linearGradient id="panel" x1="600" y1="52" x2="600" y2="578" gradientUnits="userSpaceOnUse">
      <stop stop-color="#2A1811" stop-opacity="0.96" />
      <stop offset="1" stop-color="#19100B" stop-opacity="0.96" />
    </linearGradient>
    <linearGradient id="card" x1="931" y1="74" x2="931" y2="312" gradientUnits="userSpaceOnUse">
      <stop stop-color="#3A2117" />
      <stop offset="1" stop-color="#24140D" />
    </linearGradient>
    <linearGradient id="callout" x1="931" y1="340" x2="931" y2="562" gradientUnits="userSpaceOnUse">
      <stop stop-color="#311B13" />
      <stop offset="1" stop-color="#1E120C" />
    </linearGradient>
    <linearGradient id="carBody" x1="0" y1="0" x2="0" y2="1">
      <stop stop-color="#FF9756" />
      <stop offset="1" stop-color="#FF6B2C" />
    </linearGradient>
    <filter id="shadow" x="0" y="0" width="1200" height="630" filterUnits="userSpaceOnUse" color-interpolation-filters="sRGB">
      <feDropShadow dx="0" dy="20" stdDeviation="30" flood-color="#000000" flood-opacity="0.35" />
    </filter>
  </defs>

  <rect width="1200" height="630" fill="url(#bg)" />
  <rect width="1200" height="10" fill="#FF6B2C" />
  <rect y="10" width="1200" height="4" fill="#FFD166" fill-opacity="0.9" />
  <circle cx="1018" cy="92" r="250" fill="url(#glowA)" />
  <circle cx="212" cy="58" r="194" fill="url(#glowB)" />

  <g opacity="0.14">
    <path d="M65 520H655" stroke="#FFB780" stroke-width="1.5" />
    <path d="M65 548H655" stroke="#FFB780" stroke-width="1.5" />
    <path d="M65 576H655" stroke="#FFB780" stroke-width="1.5" />
  </g>

  <g filter="url(#shadow)">
    <rect x="38" y="40" width="1124" height="550" rx="30" fill="url(#panel)" stroke="#FFB780" stroke-opacity="0.18" />
  </g>

  <text x="72" y="90" fill="#FFD166" font-family="Arial" font-size="25" font-weight="800" letter-spacing="6">FSD DELAY CLOCK</text>
  <text x="1036" y="90" fill="#F7EAD7" font-family="Arial" font-size="24" font-weight="700" letter-spacing="2.4" text-anchor="end">fsddelay.org</text>

  <text x="72" y="182" fill="#F7EAD7" font-family="Arial" font-size="78" font-weight="900" letter-spacing="-2.8">MINISTERS,</text>
  <text x="72" y="255" fill="#F7EAD7" font-family="Arial" font-size="78" font-weight="900" letter-spacing="-2.8">YOUR CLOCK IS</text>
  <text x="72" y="328" fill="#FF9756" font-family="Arial" font-size="86" font-weight="900" letter-spacing="-3.2">STILL RUNNING.</text>

  <text x="74" y="388" fill="#D0B79A" font-family="Georgia" font-size="27">
    RDW approved FSD in the Netherlands on 10 April 2026.
  </text>
  <text x="74" y="426" fill="#D0B79A" font-family="Georgia" font-size="27">
    Europe still waits for the Commission step and the vote.
  </text>

  <rect x="72" y="474" width="210" height="48" rx="24" fill="#2A1811" stroke="#FFB780" stroke-opacity="0.18" />
  <text x="177" y="505" fill="#FFD166" font-family="Arial" font-size="24" font-weight="800" letter-spacing="2.4" text-anchor="middle">HW4-ONLY IS PARTIAL</text>

  <rect x="296" y="474" width="212" height="48" rx="24" fill="#2A1811" stroke="#FFB780" stroke-opacity="0.18" />
  <text x="402" y="505" fill="#FFD166" font-family="Arial" font-size="24" font-weight="800" letter-spacing="2.2" text-anchor="middle">APPROVE THEN IMPROVE</text>

  <rect x="72" y="536" width="270" height="28" rx="14" fill="#FF6B2C" fill-opacity="0.14" stroke="#FF6B2C" stroke-opacity="0.4" />
  <text x="207" y="556" fill="#FFF0E3" font-family="Arial" font-size="18" font-weight="800" letter-spacing="2.1" text-anchor="middle">SOURCE-BACKED ACTIVIST TRACKER</text>

  <rect x="720" y="74" width="422" height="238" rx="24" fill="url(#card)" stroke="#FF6B2C" stroke-opacity="0.26" />
  <text x="750" y="120" fill="#FFD166" font-family="Arial" font-size="22" font-weight="800" letter-spacing="3.3">LIVE SCENARIO COUNTER</text>
  <text x="750" y="162" fill="#D0B79A" font-family="Georgia" font-size="26">Illustrative lives/year still frozen under</text>
  <text x="750" y="193" fill="#D0B79A" font-family="Georgia" font-size="26">the broad HW3 + HW4 policy scope</text>
  <text x="748" y="290" fill="#FFF0E3" font-family="Arial" font-size="136" font-weight="900" letter-spacing="-7">25.2</text>
  <text x="1030" y="288" fill="#FFD166" font-family="Arial" font-size="34" font-weight="800" letter-spacing="2.8">LIVES/YR</text>

  <rect x="720" y="338" width="422" height="224" rx="24" fill="url(#callout)" stroke="#FFB780" stroke-opacity="0.16" />
  <text x="752" y="382" fill="#FFD166" font-family="Arial" font-size="22" font-weight="800" letter-spacing="3.3">NEXT +1</text>
  <text x="752" y="460" fill="#FFF2CB" font-family="Arial" font-size="100" font-weight="900" letter-spacing="-5">14.5D</text>
  <text x="752" y="500" fill="#D0B79A" font-family="Georgia" font-size="24">Current default pace of the live counter</text>

  <rect x="740" y="520" width="325" height="15" rx="7.5" fill="#251712" />
  <rect x="760" y="526" width="220" height="3" rx="1.5" fill="#FFD166" />
  <rect x="995" y="503" width="86" height="44" rx="10" fill="#FFD166" />
  <path d="M1005 542h66" stroke="#FF6B2C" stroke-width="8" />
  <path d="M1013 510h50" stroke="#FF6B2C" stroke-width="8" />

  <g transform="translate(900 478)">
    <path d="M0 34C0 20.7452 10.7452 10 24 10H76L95 26V42H0V34Z" fill="url(#carBody)" />
    <path d="M24 10C28 1 36 -4 47 -4H63C71 -4 77 0 82 10H24Z" fill="#FFE4C6" />
    <circle cx="22" cy="44" r="10" fill="#16100D" />
    <circle cx="74" cy="44" r="10" fill="#16100D" />
    <circle cx="22" cy="44" r="4" fill="#F6D9BA" />
    <circle cx="74" cy="44" r="4" fill="#F6D9BA" />
  </g>

  <circle cx="1088" cy="396" r="26" fill="#FF6B2C" fill-opacity="0.16" stroke="#FF6B2C" stroke-opacity="0.42" />
  <text x="1088" y="405" fill="#FFF0E3" font-family="Arial" font-size="28" font-weight="900" letter-spacing="1.2" text-anchor="middle">+1</text>
</svg>
